{
  "asset": {
    "generator": "Khronos glTF Blender I/O v3.4.50",
    "version": "2.0"
  },
  "scene": 0,
  "scenes": [
    {
      "name": "Scene",
      "nodes": [
        0
      ]
    }
  ],
  "nodes": [
    {
      "mesh": 0,
      "name": "Cube"
    }
  ],
  "materials": [
    {
      "doubleSided": true,
      "name": "Material",
      "pbrMetallicRoughness": {
        "baseColorFactor": [
          0.800000011920929,
          0.800000011920929,
          0.800000011920929,
          1
        ],
        "metallicFactor": 0,
        "roughnessFactor": 0.5
      }
    }
  ],
  "meshes": [
    {
      "name": "Cube",
      "primitives": [
        {
          "attributes": {
            "POSITION": 0,
            "TEXCOORD_0": 1,
            "NORMAL": 2
          },
          "indices": 3,
          "material": 0
        },
        {
          "attributes": {
            "POSITION": 4,
            "TEXCOORD_0": 5,
            "NORMAL": 6
          },
          "indices": 7,
          "material": 0
        }
      ]
    }
  ],
  "accessors": [
    {
      "bufferView": 0,
      "componentType": 5126,
      "count": 32,
      "max": [
        1,
        1,
        1
      ],
      "min": [
        -1,
        -1,
        -1
      ],
      "type": "VEC3"
    },
    {
      "bufferView": 1,
      "componentType": 5126,
      "count": 32,
      "type": "VEC2"
    },
    {
      "bufferView": 2,
      "componentType": 5126,
      "count": 32,
      "type": "VEC3"
    },
    {
      "bufferView": 3,
      "componentType": 5123,
      "count": 60,
      "type": "SCALAR"
    },
    {
      "bufferView": 4,
      "componentType": 5126,
      "count": 16,
      "max": [
        0.4000000059604645,
        0.3999999761581421,
        1
      ],
      "min": [
        -0.4000000059604645,
        -1,
        0.8999999761581421
      ],
      "type": "VEC3"
    },
    {
      "bufferView": 5,
      "componentType": 5126,
      "count": 16,
      "type": "VEC2"
    },
    {
      "bufferView": 6,
      "componentType": 5126,
      "count": 16,
      "type": "VEC3"
    },
    {
      "bufferView": 7,
      "componentType": 5123,
      "count": 24,
      "type": "SCALAR"
    }
  ],
  "bufferViews": [
    {
      "buffer": 0,
      "byteLength": 384,
      "byteOffset": 0,
      "target": 34962
    },
    {
      "buffer": 0,
      "byteLength": 256,
      "byteOffset": 384,
      "target": 34962
    },
    {
      "buffer": 0,
      "byteLength": 384,
      "byteOffset": 640,
      "target": 34962
    },
    {
      "buffer": 0,
      "byteLength": 120,
      "byteOffset": 1024,
      "target": 34963
    },
    {
      "buffer": 0,
      "byteLength": 192,
      "byteOffset": 1144,
      "target": 34962
    },
    {
      "buffer": 0,
      "byteLength": 128,
      "byteOffset": 1336,
      "target": 34962
    },
    {
      "buffer": 0,
      "byteLength": 192,
      "byteOffset": 1464,
      "target": 34962
    },
    {
      "buffer": 0,
      "byteLength": 48,
      "byteOffset": 1656,
      "target": 34963
    }
  ],
  "buffers": [
    {
      "uri": "doorblock_data.bin",
      "byteLength": 1704
    }
  ]
}